<?xml version="1.0" encoding="UTF-8"?>
<svg version="1.1" xmlns="http://www.w3.org/2000/svg" width="146" height="146">
<path d="M0 0 C5.21374555 2.04795242 9.29566197 5.30091483 12.38671875 9.9375 C11.83770119 20.22805983 2.05282283 28.75725491 -4.61328125 35.9375 C-2.48357561 37.56961086 -0.33960825 39.11768222 1.90234375 40.59375 C11.51880163 47.07799017 18.49982874 54.85772851 20.90625 66.4375 C22.23011799 77.73450684 19.94584072 88.08964129 13.421875 97.453125 C4.57498288 108.25278601 4.57498288 108.25278601 -1.61328125 108.9375 C-3.86328125 107.625 -3.86328125 107.625 -5.61328125 104.9375 C-5.77546391 102.45216035 -5.66953886 100.03097783 -5.5703125 97.54296875 C-5.65051772 92.679616 -7.05492743 88.44715526 -10.61328125 85 C-15.21665459 82.55445791 -19.52133345 82.45795012 -24.61328125 82.9375 C-30.25506805 84.96002734 -33.10574186 88.07317515 -35.86328125 93.3125 C-36.85441703 96.78147522 -37.05498285 99.34078694 -36.61328125 102.9375 C-33.38192302 107.83349732 -29.46316663 110.70424308 -24.61328125 113.9375 C-24.73828125 116.25 -24.73828125 116.25 -25.61328125 118.9375 C-37.50073242 127.38384689 -58.7371726 125.04512358 -72.42578125 122.9375 C-79.96383584 121.62413597 -87.22058892 119.35937938 -94.48828125 117 C-96.05026245 116.49629883 -96.05026245 116.49629883 -97.64379883 115.98242188 C-99.10982544 115.48258789 -99.10982544 115.48258789 -100.60546875 114.97265625 C-101.4754248 114.6775415 -102.34538086 114.38242676 -103.24169922 114.07836914 C-105.95622992 112.77252171 -107.60871132 111.16283371 -109.61328125 108.9375 C-108.36337327 104.92038281 -106.85295449 101.14652492 -105.10058594 97.33325195 C-100.14883112 86.51338009 -97.75099478 76.20830374 -96.17578125 64.4375 C-94.07080798 48.91468545 -89.68649927 33.93033594 -77.0625 23.62109375 C-65.60279652 15.74368992 -52.11554093 13.26964735 -38.46484375 15.4375 C-29.65525503 17.39025518 -23.45453341 21.16519349 -16.61328125 26.9375 C-14.19908762 20.49965031 -12.82506235 14.22576214 -11.87963867 7.43554688 C-11.37726565 4.31034129 -10.94414079 2.29939967 -8.78125 -0.06640625 C-5.46724352 -1.58905787 -3.42640915 -0.90615779 0 0 Z " fill="#22AD32" transform="translate(115.61328125,10.0625)"/>
<path d="M0 0 C5.21374555 2.04795242 9.29566197 5.30091483 12.38671875 9.9375 C11.83770119 20.22805983 2.05282283 28.75725491 -4.61328125 35.9375 C-2.48357561 37.56961086 -0.33960825 39.11768222 1.90234375 40.59375 C11.51880163 47.07799017 18.49982874 54.85772851 20.90625 66.4375 C22.23011799 77.73450684 19.94584072 88.08964129 13.421875 97.453125 C4.57498288 108.25278601 4.57498288 108.25278601 -1.61328125 108.9375 C-3.86328125 107.625 -3.86328125 107.625 -5.61328125 104.9375 C-5.77546391 102.45216035 -5.66953886 100.03097783 -5.5703125 97.54296875 C-5.65051772 92.679616 -7.05492743 88.44715526 -10.61328125 85 C-15.21665459 82.55445791 -19.52133345 82.45795012 -24.61328125 82.9375 C-30.25506805 84.96002734 -33.10574186 88.07317515 -35.86328125 93.3125 C-36.85441703 96.78147522 -37.05498285 99.34078694 -36.61328125 102.9375 C-33.38192302 107.83349732 -29.46316663 110.70424308 -24.61328125 113.9375 C-24.73828125 116.25 -24.73828125 116.25 -25.61328125 118.9375 C-37.50073242 127.38384689 -58.7371726 125.04512358 -72.42578125 122.9375 C-79.96383584 121.62413597 -87.22058892 119.35937938 -94.48828125 117 C-96.05026245 116.49629883 -96.05026245 116.49629883 -97.64379883 115.98242188 C-99.10982544 115.48258789 -99.10982544 115.48258789 -100.60546875 114.97265625 C-101.4754248 114.6775415 -102.34538086 114.38242676 -103.24169922 114.07836914 C-105.95622992 112.77252171 -107.60871132 111.16283371 -109.61328125 108.9375 C-108.36337327 104.92038281 -106.85295449 101.14652492 -105.10058594 97.33325195 C-100.14883112 86.51338009 -97.75099478 76.20830374 -96.17578125 64.4375 C-94.07080798 48.91468545 -89.68649927 33.93033594 -77.0625 23.62109375 C-65.60279652 15.74368992 -52.11554093 13.26964735 -38.46484375 15.4375 C-29.65525503 17.39025518 -23.45453341 21.16519349 -16.61328125 26.9375 C-14.19908762 20.49965031 -12.82506235 14.22576214 -11.87963867 7.43554688 C-11.37726565 4.31034129 -10.94414079 2.29939967 -8.78125 -0.06640625 C-5.46724352 -1.58905787 -3.42640915 -0.90615779 0 0 Z M-79.61328125 32.9375 C-80.27328125 33.63875 -80.93328125 34.34 -81.61328125 35.0625 C-88.01892877 44.27061831 -90.95741736 54.92485544 -92.21484375 65.95703125 C-93.66458381 78.6148081 -96.40948179 89.31508716 -101.61328125 100.9375 C-102.18866091 102.27107544 -102.76171847 103.60565607 -103.33203125 104.94140625 C-103.75484375 105.93011719 -104.17765625 106.91882813 -104.61328125 107.9375 C-97.10874971 112.20695272 -89.77718674 114.40098582 -81.36328125 116.1875 C-79.64625 116.57035156 -79.64625 116.57035156 -77.89453125 116.9609375 C-62.45659124 120.37164518 -45.94853325 122.04925067 -30.61328125 116.9375 C-31.76053402 113.49574169 -32.86612777 112.64630725 -35.61328125 110.375 C-40.44246274 106.36505465 -40.44246274 106.36505465 -40.88671875 102.65234375 C-41.14840682 95.49618139 -39.98570223 90.6718226 -35.61328125 84.9375 C-30.12545651 79.71737403 -25.79840497 78.52917846 -18.3671875 78.6875 C-11.94676501 79.27034686 -7.81044212 82.02082584 -3.61328125 86.9375 C-1.47457761 90.31440049 -0.64641027 94.10016365 0.38671875 97.9375 C5.98853501 89.53477561 5.43294945 77.63689323 3.921875 67.9609375 C1.26834249 57.81784873 -6.13182851 49.86048455 -14.98828125 44.5 C-20.55976166 43.30611134 -25.61627346 42.66281417 -30.55078125 45.8125 C-34.76800306 52.20223002 -36.80550641 60.59621556 -36.67578125 68.25 C-36.65515625 69.466875 -36.63453125 70.68375 -36.61328125 71.9375 C-37.27328125 71.9375 -37.93328125 71.9375 -38.61328125 71.9375 C-38.60167969 71.36902344 -38.59007813 70.80054688 -38.578125 70.21484375 C-38.52104931 65.33079516 -38.79371353 60.75246035 -39.61328125 55.9375 C-41.34903774 55.06313582 -41.34903774 55.06313582 -43.61328125 54.9375 C-49.44244401 58.82360851 -55.37184954 64.21320486 -57.61328125 70.9375 C-57.10166365 73.36428789 -56.28979016 75.57168776 -55.421875 77.89453125 C-53.78217806 84.06517819 -54.40099047 90.60022715 -54.61328125 96.9375 C-54.95359375 95.019375 -54.95359375 95.019375 -55.30078125 93.0625 C-56.50126026 87.55081172 -58.92121844 82.85924841 -61.61328125 77.9375 C-65.2808013 79.4766801 -67.59908698 81.69235452 -70.37890625 84.5078125 C-71.26835938 85.40371094 -72.1578125 86.29960938 -73.07421875 87.22265625 C-74.45480469 88.62837891 -74.45480469 88.62837891 -75.86328125 90.0625 C-76.80812981 91.01738637 -77.75343758 91.97181859 -78.69921875 92.92578125 C-81.00846463 95.25859087 -83.31291328 97.59594086 -85.61328125 99.9375 C-84.31589133 96.04533024 -81.90581535 93.33413489 -79.36328125 90.1875 C-72.06220632 82.29395604 -72.06220632 82.29395604 -68.61328125 72.9375 C-69.80953125 72.916875 -71.00578125 72.89625 -72.23828125 72.875 C-72.91117188 72.86339844 -73.5840625 72.85179687 -74.27734375 72.83984375 C-77.11147527 72.95832751 -79.82510919 73.43019649 -82.61328125 73.9375 C-80.78074253 73.1647795 -78.94720383 72.39443039 -77.11328125 71.625 C-76.01628906 71.16222656 -74.91929688 70.69945312 -73.7890625 70.22265625 C-71.30161784 69.21605196 -68.85584087 68.36379089 -66.30078125 67.5625 C-58.11210451 64.48963574 -51.76872188 55.25539285 -47.61328125 47.9375 C-47.31372103 45.21171483 -47.31372103 45.21171483 -47.61328125 42.9375 C-49.96180653 41.76323736 -51.3510219 41.82241827 -53.96484375 41.83984375 C-54.815625 41.84306641 -55.66640625 41.84628906 -56.54296875 41.84960938 C-57.43242188 41.85798828 -58.321875 41.86636719 -59.23828125 41.875 C-60.13546875 41.87951172 -61.03265625 41.88402344 -61.95703125 41.88867188 C-64.17584773 41.90047409 -66.39453143 41.91693845 -68.61328125 41.9375 C-65.21848005 41.18082287 -62.03357164 40.79828615 -58.55859375 40.7265625 C-57.61371094 40.69820312 -56.66882812 40.66984375 -55.6953125 40.640625 C-53.73195693 40.58875299 -51.768387 40.54441941 -49.8046875 40.5078125 C-42.79310009 40.27886271 -37.40026182 39.65301953 -32.17578125 34.5625 C-30.41025621 31.59641793 -29.83554303 30.30769896 -30.61328125 26.9375 C-36.26784903 21.11158168 -42.01495355 19.73083317 -49.86328125 19.5 C-62.00696025 19.75224259 -71.34457037 24.01599616 -79.61328125 32.9375 Z " fill="#028816" transform="translate(115.61328125,10.0625)"/>
<path d="M0 0 C5.21374555 2.04795242 9.29566197 5.30091483 12.38671875 9.9375 C11.83770119 20.22805983 2.05282283 28.75725491 -4.61328125 35.9375 C-2.48357561 37.56961086 -0.33960825 39.11768222 1.90234375 40.59375 C11.51880163 47.07799017 18.49982874 54.85772851 20.90625 66.4375 C22.23011799 77.73450684 19.94584072 88.08964129 13.421875 97.453125 C4.57498288 108.25278601 4.57498288 108.25278601 -1.61328125 108.9375 C-3.86328125 107.625 -3.86328125 107.625 -5.61328125 104.9375 C-5.77546391 102.45216035 -5.66953886 100.03097783 -5.5703125 97.54296875 C-5.65051772 92.679616 -7.05492743 88.44715526 -10.61328125 85 C-15.21665459 82.55445791 -19.52133345 82.45795012 -24.61328125 82.9375 C-30.25506805 84.96002734 -33.10574186 88.07317515 -35.86328125 93.3125 C-36.85441703 96.78147522 -37.05498285 99.34078694 -36.61328125 102.9375 C-33.38192302 107.83349732 -29.46316663 110.70424308 -24.61328125 113.9375 C-24.73828125 116.25 -24.73828125 116.25 -25.61328125 118.9375 C-37.50073242 127.38384689 -58.7371726 125.04512358 -72.42578125 122.9375 C-79.96383584 121.62413597 -87.22058892 119.35937938 -94.48828125 117 C-96.05026245 116.49629883 -96.05026245 116.49629883 -97.64379883 115.98242188 C-99.10982544 115.48258789 -99.10982544 115.48258789 -100.60546875 114.97265625 C-101.4754248 114.6775415 -102.34538086 114.38242676 -103.24169922 114.07836914 C-105.95622992 112.77252171 -107.60871132 111.16283371 -109.61328125 108.9375 C-108.36337327 104.92038281 -106.85295449 101.14652492 -105.10058594 97.33325195 C-100.14883112 86.51338009 -97.75099478 76.20830374 -96.17578125 64.4375 C-94.07080798 48.91468545 -89.68649927 33.93033594 -77.0625 23.62109375 C-65.60279652 15.74368992 -52.11554093 13.26964735 -38.46484375 15.4375 C-29.65525503 17.39025518 -23.45453341 21.16519349 -16.61328125 26.9375 C-14.19908762 20.49965031 -12.82506235 14.22576214 -11.87963867 7.43554688 C-11.37726565 4.31034129 -10.94414079 2.29939967 -8.78125 -0.06640625 C-5.46724352 -1.58905787 -3.42640915 -0.90615779 0 0 Z M-6.61328125 3.9375 C-6.74863281 4.85789062 -6.88398437 5.77828125 -7.0234375 6.7265625 C-8.67154963 16.41785656 -11.42286416 24.50776236 -16.61328125 32.9375 C-17.27328125 33.2675 -17.93328125 33.5975 -18.61328125 33.9375 C-19.10828125 33.07125 -19.60328125 32.205 -20.11328125 31.3125 C-24.04116269 25.4346065 -29.81273494 21.65139491 -36.61328125 19.9375 C-40.01289895 19.60996694 -43.38684555 19.55643886 -46.80078125 19.5625 C-48.20372437 19.56491699 -48.20372437 19.56491699 -49.63500977 19.56738281 C-60.63000946 19.76250938 -69.09194759 22.81054732 -77.23828125 30.375 C-78.02203125 31.220625 -78.80578125 32.06625 -79.61328125 32.9375 C-80.27328125 33.63875 -80.93328125 34.34 -81.61328125 35.0625 C-88.01892877 44.27061831 -90.95741736 54.92485544 -92.21484375 65.95703125 C-93.66458381 78.6148081 -96.40948179 89.31508716 -101.61328125 100.9375 C-102.18866091 102.27107544 -102.76171847 103.60565607 -103.33203125 104.94140625 C-103.75484375 105.93011719 -104.17765625 106.91882813 -104.61328125 107.9375 C-97.10874971 112.20695272 -89.77718674 114.40098582 -81.36328125 116.1875 C-79.64625 116.57035156 -79.64625 116.57035156 -77.89453125 116.9609375 C-62.45659124 120.37164518 -45.94853325 122.04925067 -30.61328125 116.9375 C-31.76053402 113.49574169 -32.86612777 112.64630725 -35.61328125 110.375 C-40.44246274 106.36505465 -40.44246274 106.36505465 -40.88671875 102.65234375 C-41.14840682 95.49618139 -39.98570223 90.6718226 -35.61328125 84.9375 C-30.12545651 79.71737403 -25.79840497 78.52917846 -18.3671875 78.6875 C-11.94676501 79.27034686 -7.81044212 82.02082584 -3.61328125 86.9375 C-1.52679647 90.30112137 -1.24380417 93.26948182 -0.98828125 97.1875 C-0.91351563 98.26515625 -0.83875 99.3428125 -0.76171875 100.453125 C-0.68824219 101.68289062 -0.68824219 101.68289062 -0.61328125 102.9375 C4.28715205 102.2374381 6.39956451 99.09009908 9.484375 95.48828125 C15.96934088 86.79283419 17.24428861 77.55911524 16.38671875 66.9375 C13.90077227 56.22995944 6.42645854 48.71336399 -2.61328125 42.9375 C-5.24421067 41.48936449 -7.88651975 40.20349641 -10.61328125 38.9375 C-9.17967935 34.36003429 -6.57252032 31.43585594 -3.30078125 28.0625 C3.85919473 21.16860989 3.85919473 21.16860989 7.76171875 12.453125 C7.62336686 9.81899623 7.62336686 9.81899623 5.59375 8.13671875 C4.80355469 7.63785156 4.01335937 7.13898437 3.19921875 6.625 C2.42191406 6.11324219 1.64460938 5.60148438 0.84375 5.07421875 C-1.86383804 3.82158263 -3.66626935 3.71241739 -6.61328125 3.9375 Z " fill="#00552A" transform="translate(115.61328125,10.0625)"/>
<path d="M0 0 C5.57968794 0.34161355 10.16503542 1.67546548 14 6 C14 7.32 14 8.64 14 10 C11.69 9.67 9.38 9.34 7 9 C6.85304688 9.54527344 6.70609375 10.09054688 6.5546875 10.65234375 C4.38780617 17.93754822 1.13330671 25.04949067 -5.1875 29.625 C-8 31 -8 31 -11 30 C-10.68546875 29.55011719 -10.3709375 29.10023437 -10.046875 28.63671875 C-4.16210912 19.79184473 -1.53427991 10.43714096 0 0 Z " fill="#1EA534" transform="translate(109,14)"/>
<path d="M0 0 C5.57968794 0.34161355 10.16503542 1.67546548 14 6 C14 7.32 14 8.64 14 10 C8.07639384 9.43584703 4.18653966 7.18653966 0 3 C0 2.01 0 1.02 0 0 Z " fill="#87DC6F" transform="translate(109,14)"/>
</svg>
